# xmcd
#
# Track frame offsets:
#	150
#	12350
#	24170
#	33653
#	45110
#	55975
#	66767
#	76072
#	86631
#	95758
#	105804
#	116745
#	127982
#
# Disc length: 1836 seconds
#
# Revision: 1
# Processed by: cddbd v1.5.2PL0 Copyright (c) Steve Scherf et al.
# Submitted via: audiograbber 1.83.01
#
DISCID=94072a0d
DTITLE=The Alkali Flats - The Alkali Flats
DYEAR=2011
DGENRE=Honkytonk
TTITLE0=Grinnin' Like a Possum
TTITLE1=I'm Hogtied Over You
TTITLE2=The Other Half
TTITLE3=A Short Life
TTITLE4=I Can't Keep You In Love With Me
TTITLE5=Marry Me Again
TTITLE6=I Get So Lonely
TTITLE7=You're a Humdinger
TTITLE8=Fool Such As I
TTITLE9=I Heard the Bluebirds Sing
TTITLE10=Little Red Caboose
TTITLE11=I'm Setting You Free
TTITLE12=Ugly and Slouchy
EXTD=
EXTT0=
EXTT1=
EXTT2=
EXTT3=
EXTT4=
EXTT5=
EXTT6=
EXTT7=
EXTT8=
EXTT9=
EXTT10=
EXTT11=
EXTT12=
PLAYORDER=
